# xmcd
#
# Track frame offsets: 
#        187
#        17199
#        33102
#        50427
#        63724
#        77479
#        91429
#        101242
#        115029
#        124009
#        141877
#        152522
#        165069
#        185344
#        211919
#        235872
#
# Disc length: 3392 seconds
#
# Revision: 4
# Processed by: cddbd v1.5.2PL0 Copyright (c) Steve Scherf et al.
# Submitted via: ExactAudioCopy v1.0b4
#
DISCID=c60d3e10
DTITLE=Howlin' Wolf featuring Eric Clapton, Steve Winwood, Bill Wyman 
DTITLE=& Charlie Watts - The London Howlin' Wolf Sessions
DYEAR=1971
DGENRE=Blues
TTITLE0=Rockin' Daddy
TTITLE1=I Ain't Superstitious
TTITLE2=Sittin' On Top Of The World
TTITLE3=Worried About My Baby
TTITLE4=What A Woman!
TTITLE5=Poor Boy
TTITLE6=Built For Comfort
TTITLE7=Who's Been Talking?
TTITLE8=The Red Rooster (false start and dialogue)
TTITLE9=The Red Rooster
TTITLE10=Do The Do
TTITLE11=Highway 49
TTITLE12=Wang Dang Doodle
TTITLE13=Goin' Down Slow
TTITLE14=Killing Floor
TTITLE15=I Want To Have A Word With You
EXTD=
EXTT0=
EXTT1=
EXTT2=
EXTT3=
EXTT4=
EXTT5=
EXTT6=
EXTT7=
EXTT8=
EXTT9=
EXTT10=
EXTT11=
EXTT12=
EXTT13=
EXTT14=
EXTT15=
PLAYORDER=
